# ProBuilder 4.2.3
# https://unity3d.com/unity/features/worldbuilding/probuilder
# 2020/05/13 21:38:11

mtllib ./Sail.mtl
o Sail

g Sail
v -6.150638 -4.160634E-08 -0.02502847
v -6.144981 -4.160634E-08 -1.803738
v -3.768699 -4.160631E-08 -0.5242667
v -4.063163 -4.160631E-08 0.8678565
v -6.139323 -4.160634E-08 -3.582447
v -3.437778 -4.160623E-08 -2.18013
v -0.5449371 -4.160628E-08 -0.7592092
v -1.242152 -4.160626E-08 0.4947863
v -1.796033 -4.160634E-08 1.510498
v 1.591361 -4.160628E-08 1.537446
v 0.3368058 -4.160634E-08 2.236988
v 2.640657 -4.160623E-08 0.7981997
v 6.161954 -4.160628E-08 2.401639
v 4.399435 -4.160631E-08 2.707911
v 2.636915 -4.160633E-08 3.014182
v -3.53331 -4.160636E-08 3.557418
v -2.624949 -4.160637E-08 2.444768
v -0.9103961 -4.160634E-08 2.975729
v -2.218988 -4.160636E-08 3.569933
v 0.8661246 -4.160635E-08 3.298315
v -0.9046659 -4.160637E-08 3.582447
v -4.847633 -4.160635E-08 3.544904
v -4.37993 -4.160634E-08 2.05837
v -6.161954 -4.160634E-08 3.53239
v -6.156296 -4.160634E-08 1.753681

vt 6.150638 -0.02502847
vt 6.144981 -1.803738
vt 3.768699 -0.5242667
vt 4.063163 0.8678565
vt 6.139323 -3.582447
vt 3.437778 -2.18013
vt 0.5449371 -0.7592092
vt 1.242152 0.4947863
vt 1.796033 1.510498
vt -1.591361 1.537446
vt -0.3368058 2.236988
vt -2.640657 0.7981997
vt -6.161954 2.401639
vt -4.399435 2.707911
vt -2.636915 3.014182
vt 3.53331 3.557418
vt 2.624949 2.444768
vt 0.9103961 2.975729
vt 2.218988 3.569933
vt -0.8661246 3.298315
vt 0.9046659 3.582447
vt 4.847633 3.544904
vt 4.37993 2.05837
vt 6.161954 3.53239
vt 6.156296 1.753681

vn -1.221292E-14 1 -1.339486E-15

usemtl Sail
f 4/4/1 3/3/1 2/2/1 1/1/1
f 3/3/1 6/6/1 5/5/1 2/2/1
f 7/7/1 6/6/1 3/3/1 8/8/1
f 8/8/1 3/3/1 4/4/1 9/9/1
f 11/11/1 10/10/1 8/8/1 9/9/1
f 10/10/1 12/12/1 7/7/1 8/8/1
f 14/14/1 13/13/1 12/12/1 10/10/1
f 15/15/1 14/14/1 10/10/1 11/11/1
f 19/19/1 18/18/1 17/17/1 16/16/1
f 18/18/1 11/11/1 9/9/1 17/17/1
f 20/20/1 15/15/1 11/11/1 18/18/1
f 21/21/1 20/20/1 18/18/1 19/19/1
f 16/16/1 17/17/1 23/23/1 22/22/1
f 23/23/1 25/25/1 24/24/1 22/22/1
f 23/23/1 4/4/1 1/1/1 25/25/1
f 17/17/1 9/9/1 4/4/1 23/23/1

